<svg width="24" height="24" viewBox="0 0 24 24" fill="none" xmlns="http://www.w3.org/2000/svg">
<path d="M8.11111 15.8889H15.8889C16.0444 15.8889 16.1611 15.8176 16.2389 15.675C16.3167 15.5324 16.3037 15.3963 16.2 15.2667L14.0611 12.4083C13.9833 12.3046 13.8796 12.2528 13.75 12.2528C13.6204 12.2528 13.5167 12.3046 13.4389 12.4083L11.4167 15.1111L9.97778 13.1861C9.9 13.0824 9.7963 13.0306 9.66667 13.0306C9.53704 13.0306 9.43333 13.0824 9.35556 13.1861L7.8 15.2667C7.6963 15.3963 7.68333 15.5324 7.76111 15.675C7.83889 15.8176 7.95556 15.8889 8.11111 15.8889ZM6.55556 19C6.12778 19 5.76145 18.8476 5.45656 18.5427C5.15167 18.2378 4.99948 17.8717 5 17.4444V6.55556C5 6.12778 5.15245 5.76145 5.45733 5.45656C5.76222 5.15167 6.1283 4.99948 6.55556 5H17.4444C17.8722 5 18.2386 5.15245 18.5434 5.45733C18.8483 5.76222 19.0005 6.1283 19 6.55556V17.4444C19 17.8722 18.8476 18.2386 18.5427 18.5434C18.2378 18.8483 17.8717 19.0005 17.4444 19H6.55556Z" fill="#686868"/>
</svg>
